# This file uses centimeters as units for non-parametric coordinates.

mtllib Desk.mtl
g default
v -3.234649 -0.500000 4.156573
v 3.234649 -0.500000 4.156573
v -3.234649 0.500000 4.156573
v 3.234649 0.500000 4.156573
v -3.234649 0.500000 -4.156573
v 3.234649 0.500000 -4.156573
v -3.234649 -0.500000 -4.156573
v 3.234649 -0.500000 -4.156573
v -3.234649 0.500000 3.076130
v 3.234649 0.500000 3.076130
v 3.234649 -0.500000 3.076130
v -3.234649 -0.500000 3.076130
v -3.234649 -0.500000 -3.223807
v 3.234649 -0.500000 -3.223807
v 3.234649 0.500000 -3.223807
v -3.234649 0.500000 -3.223807
v 2.099281 -0.500000 4.156573
v 2.099281 -0.500000 3.076130
v 2.099281 -0.500000 -3.223807
v 2.099281 -0.500000 -4.156573
v 2.099281 0.500000 -4.156573
v 2.099281 0.500000 -3.223807
v 2.099281 0.500000 3.076130
v 2.099281 0.500000 4.156573
v -1.936765 -0.500000 4.156573
v -1.936765 -0.500000 3.076130
v -1.936765 -0.500000 -3.223807
v -1.936765 -0.500000 -4.156573
v -1.936765 0.500000 -4.156573
v -1.936765 0.500000 -3.223807
v -1.936765 0.500000 3.076130
v -1.936765 0.500000 4.156573
v 2.099281 -5.200041 4.156573
v 2.099281 -5.200041 3.076130
v 3.234649 -5.200041 3.076130
v 3.234649 -5.200041 4.156573
v 2.099281 -5.200041 -3.223807
v 2.099281 -5.200041 -4.156573
v 3.234649 -5.200041 -4.156573
v 3.234649 -5.200041 -3.223807
v -1.936765 -5.200041 3.076130
v -3.234649 -5.200041 3.076130
v -1.936765 -5.200041 4.156573
v -3.234649 -5.200041 4.156573
v -3.234649 -5.200041 -4.156573
v -1.936765 -5.200041 -4.156573
v -1.936765 -5.200041 -3.223807
v -3.234649 -5.200041 -3.223807
vt 0.375000 0.000000
vt 0.625000 0.000000
vt 0.375000 0.250000
vt 0.625000 0.250000
vt 0.375000 0.500000
vt 0.625000 0.500000
vt 0.375000 0.750000
vt 0.625000 0.750000
vt 0.375000 1.000000
vt 0.625000 1.000000
vt 0.875000 0.000000
vt 0.875000 0.250000
vt 0.125000 0.000000
vt 0.125000 0.250000
vt 0.342508 0.250000
vt 0.375000 0.282492
vt 0.625000 0.282492
vt 0.657492 0.250000
vt 0.625000 0.967508
vt 0.657492 0.000000
vt 0.342508 0.000000
vt 0.375000 0.967508
vt 0.153051 0.000000
vt 0.375000 0.778051
vt 0.625000 0.778051
vt 0.846949 0.000000
vt 0.625000 0.471949
vt 0.846949 0.250000
vt 0.153051 0.250000
vt 0.375000 0.471949
vt 0.581125 0.000000
vt 0.581125 1.000000
vt 0.581125 0.967508
vt 0.581125 0.778051
vt 0.581125 0.750000
vt 0.581125 0.500000
vt 0.581125 0.471949
vt 0.581125 0.282492
vt 0.581125 0.250000
vt 0.425156 0.000000
vt 0.425156 1.000000
vt 0.425156 0.967508
vt 0.425155 0.778051
vt 0.425156 0.750000
vt 0.425156 0.500000
vt 0.425156 0.471949
vt 0.425156 0.282492
vt 0.425156 0.250000
vt 0.581125 1.000000
vt 0.581125 0.967508
vt 0.625000 0.967508
vt 0.625000 1.000000
vt 0.581125 0.778051
vt 0.581125 0.750000
vt 0.625000 0.750000
vt 0.625000 0.778051
vt 0.375000 0.967508
vt 0.425156 0.967508
vt 0.425156 1.000000
vt 0.375000 1.000000
vt 0.375000 0.750000
vt 0.425156 0.750000
vt 0.425155 0.778051
vt 0.375000 0.778051
vn 0.000000 0.000000 1.000000
vn 0.000000 0.000000 1.000000
vn 0.000000 0.000000 1.000000
vn 0.000000 0.000000 1.000000
vn 0.000000 1.000000 0.000000
vn 0.000000 1.000000 0.000000
vn 0.000000 1.000000 0.000000
vn 0.000000 1.000000 0.000000
vn 0.000000 0.000000 -1.000000
vn 0.000000 0.000000 -1.000000
vn 0.000000 0.000000 -1.000000
vn 0.000000 0.000000 -1.000000
vn 0.000000 -1.000000 0.000000
vn 0.000000 -1.000000 0.000000
vn 0.000000 -1.000000 0.000000
vn 0.000000 -1.000000 0.000000
vn 1.000000 0.000000 0.000000
vn 1.000000 0.000000 0.000000
vn 1.000000 0.000000 0.000000
vn 1.000000 0.000000 0.000000
vn -1.000000 0.000000 0.000000
vn -1.000000 0.000000 0.000000
vn -1.000000 0.000000 0.000000
vn -1.000000 0.000000 0.000000
vn 0.000000 1.000000 0.000000
vn 0.000000 1.000000 0.000000
vn 1.000000 0.000000 0.000000
vn 1.000000 0.000000 0.000000
vn 0.000000 -1.000000 0.000000
vn 0.000000 -1.000000 0.000000
vn 0.000000 -1.000000 0.000000
vn 0.000000 -1.000000 0.000000
vn -1.000000 0.000000 0.000000
vn -1.000000 0.000000 0.000000
vn 0.000000 -1.000000 0.000000
vn 0.000000 -1.000000 0.000000
vn 0.000000 -1.000000 0.000000
vn 0.000000 -1.000000 0.000000
vn 1.000000 0.000000 0.000000
vn 1.000000 0.000000 0.000000
vn 0.000000 1.000000 0.000000
vn 0.000000 1.000000 0.000000
vn -1.000000 0.000000 0.000000
vn -1.000000 0.000000 0.000000
vn 0.000000 -1.000000 0.000000
vn 0.000000 -1.000000 0.000000
vn 0.000000 -1.000000 0.000000
vn 0.000000 -1.000000 0.000000
vn 0.000000 -1.000000 0.000000
vn 0.000000 -1.000000 0.000000
vn 0.000000 0.000000 -1.000000
vn 0.000000 0.000000 -1.000000
vn 0.000000 1.000000 0.000000
vn 0.000000 1.000000 0.000000
vn 0.000000 1.000000 0.000000
vn 0.000000 1.000000 0.000000
vn 0.000000 0.000000 1.000000
vn 0.000000 0.000000 1.000000
vn 0.000000 -1.000000 0.000000
vn 0.000000 -1.000000 0.000000
vn 0.000000 -1.000000 0.000000
vn 0.000000 -1.000000 0.000000
vn 0.000000 -1.000000 0.000000
vn 0.000000 -1.000000 0.000000
vn 0.000000 -1.000000 0.000000
vn 0.000000 -1.000000 0.000000
vn 0.000000 -1.000000 0.000000
vn 0.000000 -1.000000 0.000000
vn 0.000000 0.000000 -1.000000
vn 0.000000 0.000000 -1.000000
vn 0.000000 1.000000 0.000000
vn 0.000000 1.000000 0.000000
vn 0.000000 1.000000 0.000000
vn 0.000000 1.000000 0.000000
vn 0.000000 0.000000 1.000000
vn 0.000000 0.000000 1.000000
vn -1.000000 0.000000 0.000000
vn -1.000000 0.000000 0.000000
vn -1.000000 0.000000 0.000000
vn -1.000000 0.000000 0.000000
vn 0.000000 0.000000 -1.000000
vn 0.000000 0.000000 -1.000000
vn 0.000000 0.000000 -1.000000
vn 0.000000 0.000000 -1.000000
vn 1.000000 0.000000 0.000000
vn 1.000000 0.000000 0.000000
vn 0.000000 0.000000 1.000000
vn 0.000000 0.000000 1.000000
vn -1.000000 0.000000 0.000000
vn -1.000000 0.000000 0.000000
vn -1.000000 0.000000 0.000000
vn -1.000000 0.000000 0.000000
vn 0.000000 0.000000 -1.000000
vn 0.000000 0.000000 -1.000000
vn 1.000000 0.000000 0.000000
vn 1.000000 0.000000 0.000000
vn 0.000000 0.000000 1.000000
vn 0.000000 0.000000 1.000000
vn 0.000000 0.000000 1.000000
vn 0.000000 0.000000 1.000000
vn 0.000000 0.000000 -1.000000
vn 0.000000 0.000000 -1.000000
vn 0.000000 0.000000 -1.000000
vn 0.000000 0.000000 -1.000000
vn 1.000000 0.000000 0.000000
vn 1.000000 0.000000 0.000000
vn 1.000000 0.000000 0.000000
vn 1.000000 0.000000 0.000000
vn 0.000000 0.000000 1.000000
vn 0.000000 0.000000 1.000000
vn -1.000000 0.000000 0.000000
vn -1.000000 0.000000 0.000000
vn 0.000000 0.000000 -1.000000
vn 0.000000 0.000000 -1.000000
vn 1.000000 0.000000 0.000000
vn 1.000000 0.000000 0.000000
vn 1.000000 0.000000 0.000000
vn 1.000000 0.000000 0.000000
vn 0.000000 0.000000 1.000000
vn 0.000000 0.000000 1.000000
vn 0.000000 0.000000 1.000000
vn 0.000000 0.000000 1.000000
vn -1.000000 0.000000 0.000000
vn -1.000000 0.000000 0.000000
s 1
g pCube1
usemtl initialShadingGroup
f 24/39/1 17/31/2 2/2/3 4/4/4
s 2
f 22/37/5 23/38/6 10/17/7 15/27/8
s 3
f 20/35/9 21/36/10 6/6/11 8/8/12
s 4
f 18/33/13 19/34/14 14/25/15 11/19/16
s 5
f 10/18/17 11/20/18 14/26/19 15/28/20
s 6
f 16/29/21 13/23/22 12/21/23 9/15/24
s 2
f 23/38/6 24/39/25 4/4/26 10/17/7
s 5
f 2/2/27 11/20/18 10/18/17 4/4/28
s off
f 33/49/29 34/50/30 35/51/31 36/52/32
s 6
f 9/15/24 12/21/23 1/1/33 3/3/34
s off
f 37/53/35 38/54/36 39/55/37 40/56/38
s 5
f 15/28/20 14/26/19 8/11/39 6/12/40
s 2
f 21/36/41 22/37/5 15/27/8 6/6/42
s 6
f 7/13/43 13/23/22 16/29/21 5/14/44
s 4
f 25/41/45 26/42/46 18/33/13 17/32/47
f 26/42/46 27/43/48 19/34/14 18/33/13
f 27/43/48 28/44/49 20/35/50 19/34/14
s 3
f 28/44/51 29/45/52 21/36/10 20/35/9
s 2
f 29/45/53 30/46/54 22/37/5 21/36/41
f 30/46/54 31/47/55 23/38/6 22/37/5
f 31/47/55 32/48/56 24/39/25 23/38/6
s 1
f 32/48/57 25/40/58 17/31/2 24/39/1
s off
f 42/57/59 41/58/60 43/59/61 44/60/62
s 4
f 13/24/63 27/43/48 26/42/46 12/22/64
s off
f 45/61/65 46/62/66 47/63/67 48/64/68
s 3
f 5/5/69 29/45/52 28/44/51 7/7/70
s 2
f 16/30/71 30/46/54 29/45/53 5/5/72
f 9/16/73 31/47/55 30/46/54 16/30/71
f 3/3/74 32/48/56 31/47/55 9/16/73
s 1
f 1/1/75 25/40/58 32/48/57 3/3/76
s off
f 17/32/77 18/33/78 34/50/79 33/49/80
f 18/33/81 11/19/82 35/51/83 34/50/84
s 5
f 11/19/18 2/10/27 36/52/85 35/51/86
s 1
f 2/10/3 17/32/2 33/49/87 36/52/88
s off
f 19/34/89 20/35/90 38/54/91 37/53/92
s 3
f 20/35/9 8/8/12 39/55/93 38/54/94
s 5
f 8/8/39 14/25/19 40/56/95 39/55/96
s off
f 14/25/97 19/34/98 37/53/99 40/56/100
f 12/22/101 26/42/102 41/58/103 42/57/104
f 26/42/105 25/41/106 43/59/107 41/58/108
s 1
f 25/41/58 1/9/75 44/60/109 43/59/110
s 6
f 1/9/33 12/22/23 42/57/111 44/60/112
s 3
f 7/7/70 28/44/51 46/62/113 45/61/114
s off
f 28/44/115 27/43/116 47/63/117 46/62/118
f 27/43/119 13/24/120 48/64/121 47/63/122
s 6
f 13/24/22 7/7/43 45/61/123 48/64/124
