# This file uses centimeters as units for non-parametric coordinates.

mtllib wand.mtl
g default
v -0.282969 -0.282969 0.282969
v 0.282969 -0.282969 0.282969
v -0.282969 0.282969 0.282969
v 0.282969 0.282969 0.282969
v -0.282969 0.282969 -0.282969
v 0.282969 0.282969 -0.282969
v -0.282969 -0.282969 -0.282969
v 0.282969 -0.282969 -0.282969
v -0.272467 0.707113 0.272467
v 0.272467 0.707113 0.272467
v 0.272467 0.707113 -0.272467
v -0.272467 0.707113 -0.272467
v -0.146274 1.351329 0.146274
v 0.146274 1.351329 0.146274
v 0.146274 1.351329 -0.146274
v -0.146274 1.351329 -0.146274
v -0.146274 6.715149 0.146274
v 0.146274 6.715149 0.146274
v 0.146274 6.715149 -0.146274
v -0.146274 6.715149 -0.146274
v -0.100813 7.139086 0.100813
v 0.100813 7.139086 0.100813
v 0.100813 7.139086 -0.100813
v -0.100813 7.139086 -0.100813
v -0.050406 7.349938 0.050406
v 0.050406 7.349938 0.050406
v 0.050406 7.349938 -0.050406
v -0.050406 7.349938 -0.050406
v -0.008401 7.578600 0.008401
v 0.008401 7.578600 0.008401
v 0.008401 7.578600 -0.008401
v -0.008401 7.578600 -0.008401
v -0.117904 -0.730193 -0.117904
v 0.117904 -0.730193 -0.117904
v 0.117904 -0.730193 0.117904
v -0.117904 -0.730193 0.117904
v -0.015721 -0.961178 -0.015721
v 0.015721 -0.961178 -0.015721
v 0.015721 -0.961178 0.015721
v -0.015721 -0.961178 0.015721
vt 0.375000 0.000000
vt 0.625000 0.000000
vt 0.375000 0.250000
vt 0.625000 0.250000
vt 0.375000 0.500000
vt 0.625000 0.500000
vt 0.375000 0.750000
vt 0.625000 0.750000
vt 0.375000 1.000000
vt 0.625000 1.000000
vt 0.875000 0.000000
vt 0.875000 0.250000
vt 0.125000 0.000000
vt 0.125000 0.250000
vt 0.375000 0.250000
vt 0.625000 0.250000
vt 0.625000 0.500000
vt 0.375000 0.500000
vt 0.375000 0.250000
vt 0.625000 0.250000
vt 0.625000 0.500000
vt 0.375000 0.500000
vt 0.375000 0.250000
vt 0.625000 0.250000
vt 0.625000 0.500000
vt 0.375000 0.500000
vt 0.375000 0.250000
vt 0.625000 0.250000
vt 0.625000 0.500000
vt 0.375000 0.500000
vt 0.375000 0.250000
vt 0.625000 0.250000
vt 0.625000 0.500000
vt 0.375000 0.500000
vt 0.375000 0.250000
vt 0.625000 0.250000
vt 0.625000 0.500000
vt 0.375000 0.500000
vt 0.375000 0.750000
vt 0.625000 0.750000
vt 0.625000 1.000000
vt 0.375000 1.000000
vt 0.375000 0.750000
vt 0.625000 0.750000
vt 0.625000 1.000000
vt 0.375000 1.000000
vn 0.000000 -0.112235 0.993682
vn 0.000000 -0.112235 0.993682
vn 0.000000 0.010398 0.999946
vn 0.000000 0.010398 0.999946
vn 0.000000 1.000000 0.000000
vn 0.000000 1.000000 0.000000
vn 0.000000 1.000000 0.000000
vn 0.000000 1.000000 0.000000
vn 0.000000 0.010398 -0.999946
vn 0.000000 0.010398 -0.999946
vn 0.000000 -0.112235 -0.993682
vn 0.000000 -0.112235 -0.993682
vn 0.000000 -1.000000 0.000000
vn 0.000000 -1.000000 0.000000
vn 0.000000 -1.000000 0.000000
vn 0.000000 -1.000000 0.000000
vn 0.993682 -0.112235 0.000000
vn 0.993682 -0.112235 0.000000
vn 0.999946 0.010398 0.000000
vn 0.999946 0.010398 0.000000
vn -0.993682 -0.112235 0.000000
vn -0.993682 -0.112235 0.000000
vn -0.999946 0.010398 0.000000
vn -0.999946 0.010398 0.000000
vn 0.000000 0.109279 0.994011
vn 0.000000 0.109279 0.994011
vn 0.994011 0.109279 0.000000
vn 0.994011 0.109279 0.000000
vn 0.000000 0.109279 -0.994011
vn 0.000000 0.109279 -0.994011
vn -0.994011 0.109279 0.000000
vn -0.994011 0.109279 0.000000
vn 0.000000 0.031632 0.999499
vn 0.000000 0.031632 0.999499
vn 0.999499 0.031632 0.000000
vn 0.999499 0.031632 0.000000
vn 0.000000 0.031632 -0.999499
vn 0.000000 0.031632 -0.999499
vn -0.999499 0.031632 0.000000
vn -0.999499 0.031632 0.000000
vn 0.000000 0.000000 1.000000
vn 0.000000 0.000000 1.000000
vn 1.000000 0.000000 0.000000
vn 1.000000 0.000000 0.000000
vn 0.000000 0.000000 -1.000000
vn 0.000000 0.000000 -1.000000
vn -1.000000 0.000000 0.000000
vn -1.000000 0.000000 0.000000
vn 0.000000 0.106625 0.994299
vn 0.000000 0.106625 0.994299
vn 0.000000 0.131900 0.991263
vn 0.000000 0.131900 0.991263
vn 0.994299 0.106625 0.000000
vn 0.994299 0.106625 0.000000
vn 0.991263 0.131900 0.000000
vn 0.991263 0.131900 0.000000
vn 0.000000 0.106625 -0.994299
vn 0.000000 0.106625 -0.994299
vn 0.000000 0.131900 -0.991263
vn 0.000000 0.131900 -0.991263
vn -0.994299 0.106625 0.000000
vn -0.994299 0.106625 0.000000
vn -0.991263 0.131900 0.000000
vn -0.991263 0.131900 0.000000
vn 0.000000 0.219922 0.975517
vn 0.000000 0.219922 0.975517
vn 0.975517 0.219922 0.000000
vn 0.975517 0.219922 0.000000
vn 0.000000 0.219922 -0.975517
vn 0.000000 0.219922 -0.975517
vn -0.975517 0.219922 0.000000
vn -0.975517 0.219922 0.000000
vn 0.000000 0.180677 0.983542
vn 0.000000 0.180677 0.983542
vn 0.983542 0.180677 0.000000
vn 0.983542 0.180677 0.000000
vn 0.000000 0.180677 -0.983542
vn 0.000000 0.180677 -0.983542
vn -0.983542 0.180677 0.000000
vn -0.983542 0.180677 0.000000
vn 0.000000 -0.352099 -0.935963
vn 0.000000 -0.352099 -0.935963
vn 0.935963 -0.352099 0.000000
vn 0.935963 -0.352099 0.000000
vn 0.000000 -0.352099 0.935963
vn 0.000000 -0.352099 0.935963
vn -0.935963 -0.352099 0.000000
vn -0.935963 -0.352099 0.000000
vn 0.000000 -0.404563 -0.914510
vn 0.000000 -0.404563 -0.914510
vn 0.914510 -0.404563 0.000000
vn 0.914510 -0.404563 0.000000
vn 0.000000 -0.404563 0.914510
vn 0.000000 -0.404563 0.914510
vn -0.914510 -0.404563 0.000000
vn -0.914510 -0.404563 0.000000
s 1
g pCube1
usemtl initialShadingGroup
f 1/1/1 2/2/2 4/4/3 3/3/4
s off
f 29/35/5 30/36/6 31/37/7 32/38/8
s 2
f 5/5/9 6/6/10 8/8/11 7/7/12
s off
f 37/43/13 38/44/14 39/45/15 40/46/16
s 3
f 2/2/17 8/11/18 6/12/19 4/4/20
s 4
f 7/13/21 1/1/22 3/3/23 5/14/24
s 1
f 3/3/4 4/4/3 10/16/25 9/15/26
s 3
f 4/4/20 6/6/19 11/17/27 10/16/28
s 2
f 6/6/10 5/5/9 12/18/29 11/17/30
s 4
f 5/5/24 3/3/23 9/15/31 12/18/32
s 1
f 9/15/26 10/16/25 14/20/33 13/19/34
s 3
f 10/16/28 11/17/27 15/21/35 14/20/36
s 2
f 11/17/30 12/18/29 16/22/37 15/21/38
s 4
f 12/18/32 9/15/31 13/19/39 16/22/40
s 1
f 13/19/34 14/20/33 18/24/41 17/23/42
s 3
f 14/20/36 15/21/35 19/25/43 18/24/44
s 2
f 15/21/38 16/22/37 20/26/45 19/25/46
s 4
f 16/22/40 13/19/39 17/23/47 20/26/48
s 5
f 17/23/49 18/24/50 22/28/51 21/27/52
s 6
f 18/24/53 19/25/54 23/29/55 22/28/56
s 7
f 19/25/57 20/26/58 24/30/59 23/29/60
s 8
f 20/26/61 17/23/62 21/27/63 24/30/64
s 5
f 21/27/52 22/28/51 26/32/65 25/31/66
s 6
f 22/28/56 23/29/55 27/33/67 26/32/68
s 7
f 23/29/60 24/30/59 28/34/69 27/33/70
s 8
f 24/30/64 21/27/63 25/31/71 28/34/72
s 5
f 25/31/66 26/32/65 30/36/73 29/35/74
s 6
f 26/32/68 27/33/67 31/37/75 30/36/76
s 7
f 27/33/70 28/34/69 32/38/77 31/37/78
s 8
f 28/34/72 25/31/71 29/35/79 32/38/80
s 2
f 7/7/12 8/8/11 34/40/81 33/39/82
s 3
f 8/8/18 2/10/17 35/41/83 34/40/84
s 1
f 2/10/2 1/9/1 36/42/85 35/41/86
s 4
f 1/9/22 7/7/21 33/39/87 36/42/88
s 2
f 33/39/82 34/40/81 38/44/89 37/43/90
s 3
f 34/40/84 35/41/83 39/45/91 38/44/92
s 1
f 35/41/86 36/42/85 40/46/93 39/45/94
s 4
f 36/42/88 33/39/87 37/43/95 40/46/96
