# This file uses centimeters as units for non-parametric coordinates.

mtllib chair.mtl
g default
v -3.204668 -0.267648 3.582355
v 3.204668 -0.267648 3.582355
v -3.204668 0.267648 3.582355
v 3.204668 0.267648 3.582355
v -3.204668 0.267648 -3.582355
v 3.204668 0.267648 -3.582355
v -3.204668 -0.267648 -3.582355
v 3.204668 -0.267648 -3.582355
v -3.204668 0.267648 -2.343648
v 3.204668 0.267648 -2.343648
v 3.204668 -0.267648 -2.343648
v -3.204668 -0.267648 -2.343648
v -3.382588 5.131531 -2.347620
v 3.382588 5.131531 -2.347620
v 3.382588 5.131531 -3.578383
v -3.382588 5.131531 -3.578383
v 2.063806 -0.267648 3.582355
v 2.063806 -0.267648 -2.343648
v 2.063806 -0.267648 -3.582355
v 2.063806 0.267648 -3.582355
v 2.178387 5.131531 -3.578383
v 2.178387 5.131531 -2.347620
v 2.063806 0.267648 -2.343648
v 2.063806 0.267648 3.582355
v -1.940608 -0.267648 3.582355
v -1.940608 -0.267648 -2.343648
v -1.940608 -0.267648 -3.582355
v -1.940608 0.267648 -3.582355
v -2.048348 5.131531 -3.578383
v -2.048348 5.131531 -2.347620
v -1.940608 0.267648 -2.343648
v -1.940608 0.267648 3.582355
v -3.204668 0.267648 2.445250
v -1.940608 0.267648 2.445250
v 2.063806 0.267648 2.445250
v 3.204668 0.267648 2.445250
v 3.204668 -0.267648 2.445250
v 2.063806 -0.267648 2.445250
v -1.940608 -0.267648 2.445250
v -3.204668 -0.267648 2.445250
v 2.063806 -6.511974 -2.343648
v 2.063806 -6.511974 -3.582355
v 3.204668 -6.511974 -3.582355
v 3.204668 -6.511974 -2.343648
v -3.204668 -6.511974 -3.582355
v -1.940608 -6.511974 -3.582355
v -1.940608 -6.511974 -2.343648
v -3.204668 -6.511974 -2.343648
v 2.063806 -6.511975 3.582355
v 2.063806 -6.511975 2.445250
v 3.204668 -6.511975 2.445250
v 3.204668 -6.511975 3.582355
v -1.940608 -6.511974 2.445250
v -3.204668 -6.511974 2.445250
v -1.940608 -6.511974 3.582355
v -3.204668 -6.511974 3.582355
vt 0.375000 0.000000
vt 0.625000 0.000000
vt 0.375000 0.250000
vt 0.625000 0.250000
vt 0.375000 0.500000
vt 0.625000 0.500000
vt 0.375000 0.750000
vt 0.625000 0.750000
vt 0.375000 1.000000
vt 0.625000 1.000000
vt 0.875000 0.000000
vt 0.875000 0.250000
vt 0.125000 0.000000
vt 0.125000 0.250000
vt 0.168223 0.250000
vt 0.375000 0.456778
vt 0.625000 0.456778
vt 0.831778 0.250000
vt 0.625000 0.793222
vt 0.831778 0.000000
vt 0.168222 0.000000
vt 0.375000 0.793222
vt 0.375000 0.456778
vt 0.625000 0.456778
vt 0.625000 0.500000
vt 0.375000 0.500000
vt 0.580500 0.000000
vt 0.580500 1.000000
vt 0.580500 0.793223
vt 0.580500 0.750000
vt 0.580500 0.500000
vt 0.580500 0.500000
vt 0.580500 0.456778
vt 0.580500 0.456778
vt 0.580500 0.250000
vt 0.424305 0.000000
vt 0.424305 1.000000
vt 0.424305 0.793222
vt 0.424305 0.750000
vt 0.424305 0.500000
vt 0.424305 0.500000
vt 0.424305 0.456777
vt 0.424305 0.456777
vt 0.424305 0.250000
vt 0.335323 0.250000
vt 0.375000 0.289677
vt 0.424305 0.289677
vt 0.580500 0.289677
vt 0.625000 0.289677
vt 0.664677 0.250000
vt 0.625000 0.960323
vt 0.664677 0.000000
vt 0.580500 0.960323
vt 0.424305 0.960323
vt 0.335323 0.000000
vt 0.375000 0.960323
vt 0.580500 0.793223
vt 0.580500 0.750000
vt 0.625000 0.750000
vt 0.625000 0.793222
vt 0.375000 0.750000
vt 0.424305 0.750000
vt 0.424305 0.793222
vt 0.375000 0.793222
vt 0.580500 1.000000
vt 0.580500 0.960323
vt 0.625000 0.960323
vt 0.625000 1.000000
vt 0.375000 0.960323
vt 0.424305 0.960323
vt 0.424305 1.000000
vt 0.375000 1.000000
vn 0.000000 0.000000 1.000000
vn 0.000000 0.000000 1.000000
vn 0.000000 0.000000 1.000000
vn 0.000000 0.000000 1.000000
vn 0.000000 1.000000 0.000000
vn 0.000000 1.000000 0.000000
vn 0.000000 1.000000 0.000000
vn 0.000000 1.000000 0.000000
vn 0.000000 0.000000 -1.000000
vn 0.000000 0.000738 -1.000000
vn 0.000000 0.000738 -1.000000
vn 0.000000 0.000000 -1.000000
vn 0.000000 -1.000000 0.000000
vn 0.000000 -1.000000 0.000000
vn 0.000000 -1.000000 0.000000
vn 0.000000 -1.000000 0.000000
vn 0.999717 -0.023788 0.000000
vn 1.000000 0.000000 0.000000
vn 1.000000 0.000000 0.000000
vn 0.999458 -0.032925 0.000000
vn -1.000000 0.000000 0.000000
vn -1.000000 0.000000 0.000000
vn -0.999717 -0.023788 0.000000
vn -0.999458 -0.032925 0.000000
vn 0.000000 1.000000 0.000000
vn 0.000000 1.000000 0.000000
vn 0.000000 1.000000 0.000000
vn 0.000000 1.000000 0.000000
vn 1.000000 0.000000 0.000000
vn 1.000000 0.000000 0.000000
vn 0.000000 -1.000000 0.000000
vn 0.000000 -1.000000 0.000000
vn 0.000000 -1.000000 0.000000
vn 0.000000 -1.000000 0.000000
vn -1.000000 0.000000 0.000000
vn -1.000000 0.000000 0.000000
vn 0.000000 0.000817 1.000000
vn 0.000000 0.000817 1.000000
vn 0.000000 0.000817 1.000000
vn 0.000000 0.000817 1.000000
vn 0.999332 -0.036555 0.000000
vn 0.999332 -0.036555 0.000000
vn 0.000000 0.000817 -1.000000
vn 0.000000 0.000817 -1.000000
vn -0.999332 -0.036555 0.000000
vn -0.999332 -0.036555 0.000000
vn 0.000000 -1.000000 0.000000
vn 0.000000 -1.000000 0.000000
vn 0.000000 -1.000000 0.000000
vn 0.000000 -1.000000 0.000000
vn 0.000000 0.000000 -1.000000
vn 0.000000 0.000738 -1.000000
vn 0.000000 0.000817 -1.000000
vn 0.000000 1.000000 0.000000
vn 0.000000 1.000000 0.000000
vn 0.000000 0.000817 1.000000
vn 0.000000 0.000817 1.000000
vn 0.000000 1.000000 0.000000
vn 0.000000 1.000000 0.000000
vn 0.000000 0.000000 1.000000
vn 0.000000 0.000000 1.000000
vn 0.000000 -1.000000 0.000000
vn 0.000000 -1.000000 0.000000
vn 0.000000 -1.000000 0.000000
vn 0.000000 -1.000000 0.000000
vn 0.000000 -1.000000 0.000000
vn 0.000000 -1.000000 0.000000
vn 0.000000 0.000738 -1.000000
vn 0.000000 0.000000 -1.000000
vn 0.000000 0.000817 -1.000000
vn 0.000000 1.000000 0.000000
vn 0.000000 1.000000 0.000000
vn 0.000000 0.000817 1.000000
vn 0.000000 0.000817 1.000000
vn 0.000000 1.000000 0.000000
vn 0.000000 1.000000 0.000000
vn 0.000000 0.000000 1.000000
vn 0.000000 0.000000 1.000000
vn 0.000000 1.000000 0.000000
vn 0.000000 1.000000 0.000000
vn 0.000000 1.000000 0.000000
vn 0.000000 1.000000 0.000000
vn 1.000000 0.000000 0.000000
vn 1.000000 0.000000 0.000000
vn 0.000000 -1.000000 0.000000
vn 0.000000 -1.000000 0.000000
vn 0.000000 -1.000000 0.000000
vn 0.000000 -1.000000 0.000000
vn 0.000000 -1.000000 0.000000
vn 0.000000 -1.000000 0.000000
vn 0.000000 -1.000000 0.000000
vn 0.000000 -1.000000 0.000000
vn 0.000000 -1.000000 0.000000
vn 0.000000 -1.000000 0.000000
vn -1.000000 0.000000 0.000000
vn -1.000000 0.000000 0.000000
vn -1.000000 0.000000 0.000000
vn -1.000000 0.000000 0.000000
vn -1.000000 0.000000 0.000000
vn -1.000000 0.000000 0.000000
vn 0.000000 0.000000 -1.000000
vn 0.000000 0.000000 -1.000000
vn 1.000000 0.000000 0.000000
vn 1.000000 0.000000 0.000000
vn 0.000000 0.000000 1.000000
vn 0.000000 0.000000 1.000000
vn 0.000000 0.000000 1.000000
vn 0.000000 0.000000 1.000000
vn 0.000000 0.000000 -1.000000
vn 0.000000 0.000000 -1.000000
vn 1.000000 0.000000 0.000000
vn 1.000000 0.000000 0.000000
vn 1.000000 0.000000 0.000000
vn 1.000000 0.000000 0.000000
vn 0.000000 0.000000 1.000000
vn 0.000000 0.000000 1.000000
vn 0.000000 0.000000 1.000000
vn 0.000000 0.000000 1.000000
vn -1.000000 0.000000 0.000000
vn -1.000000 0.000000 0.000000
vn -1.000000 0.000000 0.000000
vn -1.000000 0.000000 0.000000
vn -1.000000 0.000000 0.000000
vn -1.000000 0.000000 0.000000
vn 0.000000 0.000000 -1.000000
vn 0.000000 0.000000 -1.000000
vn 0.000000 0.000000 -1.000000
vn 0.000000 0.000000 -1.000000
vn 1.000000 0.000000 0.000000
vn 1.000000 0.000000 0.000000
vn 0.000000 0.000000 1.000000
vn 0.000000 0.000000 1.000000
vn 0.000000 0.000000 -1.000000
vn 0.000000 0.000000 -1.000000
vn 0.000000 0.000000 -1.000000
vn 0.000000 0.000000 -1.000000
vn 1.000000 0.000000 0.000000
vn 1.000000 0.000000 0.000000
vn 1.000000 0.000000 0.000000
vn 1.000000 0.000000 0.000000
vn 0.000000 0.000000 1.000000
vn 0.000000 0.000000 1.000000
vn -1.000000 0.000000 0.000000
vn -1.000000 0.000000 0.000000
s 1
g pCube1
usemtl initialShadingGroup
f 24/35/1 17/27/2 2/2/3 4/4/4
s 2
f 21/32/5 22/33/6 14/24/7 15/25/8
s 3
f 19/30/9 20/31/10 6/6/11 8/8/12
s off
f 41/57/13 42/58/14 43/59/15 44/60/16
s 4
f 10/18/17 11/20/18 8/11/19 6/12/20
s 5
f 7/13/21 12/21/22 9/15/23 5/14/24
s 6
f 23/34/25 35/48/26 36/49/27 10/17/28
s 4
f 36/50/29 37/52/30 11/20/18 10/18/17
s 7
f 37/51/31 38/53/32 18/29/33 11/19/34
s 5
f 9/15/23 12/21/22 40/55/35 33/45/36
s 8
f 22/33/37 23/34/38 10/17/39 14/24/40
s 4
f 10/17/17 6/6/20 15/25/41 14/24/42
s 3
f 6/6/11 20/31/10 21/32/43 15/25/44
s 5
f 5/5/24 9/16/23 13/23/45 16/26/46
s 7
f 38/53/32 39/54/47 26/38/48 18/29/33
f 26/38/48 27/39/49 19/30/50 18/29/33
s 3
f 27/39/51 28/40/52 20/31/10 19/30/9
f 21/32/43 20/31/10 28/40/52 29/41/53
s 2
f 29/41/54 30/42/55 22/33/6 21/32/5
s 8
f 30/42/56 31/43/57 23/34/38 22/33/37
s 6
f 31/43/58 34/47/59 35/48/26 23/34/25
s 1
f 32/44/60 25/36/61 17/27/2 24/35/1
s 7
f 12/22/62 26/38/48 39/54/47 40/56/63
s off
f 45/61/64 46/62/65 47/63/66 48/64/67
s 3
f 5/5/68 28/40/52 27/39/51 7/7/69
f 29/41/53 28/40/52 5/5/68 16/26/70
s 2
f 13/23/71 30/42/55 29/41/54 16/26/72
s 8
f 9/16/73 31/43/57 30/42/56 13/23/74
s 6
f 33/46/75 34/47/59 31/43/58 9/16/76
s 1
f 1/1/77 25/36/61 32/44/60 3/3/78
s 6
f 3/3/79 32/44/80 34/47/59 33/46/75
f 35/48/26 34/47/59 32/44/80 24/35/81
f 36/49/27 35/48/26 24/35/81 4/4/82
s 4
f 2/2/83 37/52/30 36/50/29 4/4/84
s off
f 49/65/85 50/66/86 51/67/87 52/68/88
s 7
f 25/37/89 39/54/47 38/53/32 17/28/90
s off
f 54/69/91 53/70/92 55/71/93 56/72/94
s 5
f 33/45/36 40/55/35 1/1/95 3/3/96
s off
f 18/29/97 19/30/98 42/58/99 41/57/100
s 3
f 19/30/9 8/8/12 43/59/101 42/58/102
s 4
f 8/8/19 11/19/18 44/60/103 43/59/104
s off
f 11/19/105 18/29/106 41/57/107 44/60/108
s 3
f 7/7/69 27/39/51 46/62/109 45/61/110
s off
f 27/39/111 26/38/112 47/63/113 46/62/114
f 26/38/115 12/22/116 48/64/117 47/63/118
s 5
f 12/22/22 7/7/21 45/61/119 48/64/120
s off
f 17/28/121 38/53/122 50/66/123 49/65/124
f 38/53/125 37/51/126 51/67/127 50/66/128
s 4
f 37/51/30 2/10/83 52/68/129 51/67/130
s 1
f 2/10/3 17/28/2 49/65/131 52/68/132
s off
f 40/56/133 39/54/134 53/70/135 54/69/136
f 39/54/137 25/37/138 55/71/139 53/70/140
s 1
f 25/37/61 1/9/77 56/72/141 55/71/142
s 5
f 1/9/95 40/56/35 54/69/143 56/72/144
