# This file uses centimeters as units for non-parametric coordinates.

mtllib sing.mtl
g default
v -9.705756 -3.577722 0.500000
v 9.705756 -3.577722 0.500000
v -9.705756 3.577722 0.500000
v 9.705756 3.577722 0.500000
v -9.705756 3.577722 -0.500000
v 9.705756 3.577722 -0.500000
v -9.705756 -3.577722 -0.500000
v 9.705756 -3.577722 -0.500000
v -9.705756 2.707305 0.500000
v 9.705756 2.707305 0.500000
v 9.705756 2.707305 -0.500000
v -9.705756 2.707305 -0.500000
v -8.758804 -3.577722 0.500000
v -8.758804 -3.577722 -0.500000
v -8.758804 2.707305 -0.500000
v -8.758804 3.577722 -0.500000
v -8.758804 3.577722 0.500000
v -8.758804 2.707305 0.500000
v -9.705756 -2.791434 0.500000
v -8.758804 -2.791434 0.500000
v 9.705756 -2.791434 0.500000
v 9.705756 -2.791434 -0.500000
v -8.758804 -2.791434 -0.500000
v -9.705756 -2.791434 -0.500000
v 8.768801 2.707305 -0.500000
v 8.768801 -2.791434 -0.500000
v 8.768810 -3.577722 -0.500000
v 8.768810 -3.577722 0.500000
v 8.768810 -2.791434 0.500000
v 8.768810 2.707305 0.500000
v 8.768810 3.577722 0.500000
v 8.768810 3.577722 -0.500000
v -8.758804 3.577722 0.996621
v -8.758804 2.707305 0.996621
v 8.768810 2.707305 0.996621
v 8.768810 3.577722 0.996621
v -9.705756 2.707305 0.996621
v -9.705756 3.577722 0.996621
v -9.705756 -2.791434 0.996621
v -8.758804 -2.791434 0.996621
v -9.705756 -3.577722 0.996621
v -8.758804 -3.577722 0.996621
v 8.768810 -3.577722 0.996621
v 8.768810 -2.791434 0.996621
v 9.705756 -2.791434 0.996621
v 9.705756 -3.577722 0.996621
v 9.705756 2.707305 0.996621
v 9.705756 3.577722 0.996621
vt 0.375000 0.000000
vt 0.625000 0.000000
vt 0.375000 0.250000
vt 0.625000 0.250000
vt 0.375000 0.500000
vt 0.625000 0.500000
vt 0.375000 0.750000
vt 0.625000 0.750000
vt 0.375000 1.000000
vt 0.625000 1.000000
vt 0.875000 0.000000
vt 0.875000 0.250000
vt 0.125000 0.000000
vt 0.125000 0.250000
vt 0.375000 0.219589
vt 0.625000 0.219589
vt 0.625000 0.530411
vt 0.875000 0.219589
vt 0.125000 0.219589
vt 0.375000 0.530411
vt 0.387196 0.000000
vt 0.387196 1.000000
vt 0.387196 0.750000
vt 0.387196 0.530411
vt 0.387196 0.500000
vt 0.387196 0.250000
vt 0.387196 0.219589
vt 0.375000 0.027472
vt 0.387196 0.027472
vt 0.625000 0.027472
vt 0.625000 0.722528
vt 0.875000 0.027472
vt 0.387196 0.722528
vt 0.125000 0.027472
vt 0.375000 0.722528
vt 0.612933 0.530411
vt 0.612933 0.722528
vt 0.612933 0.750000
vt 0.612933 0.000000
vt 0.612933 1.000000
vt 0.612933 0.027472
vt 0.612933 0.219589
vt 0.612933 0.250000
vt 0.612933 0.500000
vt 0.387196 0.219589
vt 0.612933 0.219589
vt 0.612933 0.250000
vt 0.387196 0.250000
vt 0.375000 0.250000
vt 0.375000 0.219589
vt 0.387196 0.027472
vt 0.375000 0.027472
vt 0.375000 0.000000
vt 0.387196 0.000000
vt 0.612933 0.027472
vt 0.612933 0.000000
vt 0.625000 0.000000
vt 0.625000 0.027472
vt 0.625000 0.219589
vt 0.625000 0.250000
vn 0.000000 0.000000 1.000000
vn 0.000000 0.000000 1.000000
vn 0.000000 0.000000 1.000000
vn 0.000000 0.000000 1.000000
vn 0.000000 1.000000 0.000000
vn 0.000000 1.000000 0.000000
vn 0.000000 1.000000 0.000000
vn 0.000000 1.000000 0.000000
vn 0.000000 0.000000 -1.000000
vn 0.000000 0.000000 -1.000000
vn 0.000000 0.000000 -1.000000
vn 0.000000 0.000000 -1.000000
vn 0.000000 -1.000000 0.000000
vn 0.000000 -1.000000 0.000000
vn 0.000000 -1.000000 0.000000
vn 0.000000 -1.000000 0.000000
vn 1.000000 0.000000 0.000000
vn 1.000000 0.000000 0.000000
vn 1.000000 0.000000 0.000000
vn 1.000000 0.000000 0.000000
vn -1.000000 0.000000 0.000000
vn -1.000000 0.000000 0.000000
vn -1.000000 0.000000 0.000000
vn -1.000000 0.000000 0.000000
vn 0.000000 0.000000 1.000000
vn 0.000000 0.000000 1.000000
vn 0.000000 0.000000 1.000000
vn 0.000000 0.000000 1.000000
vn 1.000000 0.000000 0.000000
vn 1.000000 0.000000 0.000000
vn 0.000000 0.000000 -1.000000
vn 0.000000 0.000000 -1.000000
vn -1.000000 0.000000 0.000000
vn -1.000000 0.000000 0.000000
vn 0.000000 -1.000000 0.000000
vn 0.000000 -1.000000 0.000000
vn 0.000000 0.000000 -1.000000
vn 0.000000 0.000000 -1.000000
vn 0.000000 0.000000 -1.000000
vn 0.000000 1.000000 0.000000
vn 0.000000 1.000000 0.000000
vn 0.000000 0.000000 1.000000
vn 0.000000 0.000000 1.000000
vn 0.000000 0.000000 1.000000
vn 0.000000 0.000000 1.000000
vn 0.000000 0.000000 1.000000
vn 0.000000 0.000000 1.000000
vn 0.000000 0.000000 1.000000
vn 0.000000 0.000000 1.000000
vn 1.000000 0.000000 0.000000
vn 1.000000 0.000000 0.000000
vn 0.000000 0.000000 -1.000000
vn 0.000000 0.000000 -1.000000
vn 0.000000 0.000000 -1.000000
vn -1.000000 0.000000 0.000000
vn -1.000000 0.000000 0.000000
vn 0.000000 0.000000 -1.000000
vn 0.000000 0.000000 -1.000000
vn 0.000000 0.000000 -1.000000
vn 0.000000 -1.000000 0.000000
vn 0.000000 -1.000000 0.000000
vn 0.000000 0.000000 1.000000
vn 0.000000 0.000000 1.000000
vn 0.000000 0.000000 1.000000
vn 0.000000 0.000000 1.000000
vn 0.000000 1.000000 0.000000
vn 0.000000 1.000000 0.000000
vn 0.000000 0.000000 -1.000000
vn 0.000000 -1.000000 0.000000
vn 0.000000 -1.000000 0.000000
vn 0.000000 -1.000000 0.000000
vn 0.000000 -1.000000 0.000000
vn 0.000000 1.000000 0.000000
vn 0.000000 1.000000 0.000000
vn 0.000000 1.000000 0.000000
vn -1.000000 0.000000 0.000000
vn -1.000000 0.000000 0.000000
vn 1.000000 0.000000 0.000000
vn 1.000000 0.000000 0.000000
vn 1.000000 0.000000 0.000000
vn 1.000000 0.000000 0.000000
vn -1.000000 0.000000 0.000000
vn 0.000000 -1.000000 0.000000
vn 0.000000 -1.000000 0.000000
vn -1.000000 0.000000 0.000000
vn 0.000000 1.000000 0.000000
vn 0.000000 1.000000 0.000000
vn 0.000000 1.000000 0.000000
vn 0.000000 1.000000 0.000000
vn 0.000000 -1.000000 0.000000
vn 0.000000 -1.000000 0.000000
vn 1.000000 0.000000 0.000000
vn 1.000000 0.000000 0.000000
vn -1.000000 0.000000 0.000000
vn -1.000000 0.000000 0.000000
vn -1.000000 0.000000 0.000000
vn -1.000000 0.000000 0.000000
vn 1.000000 0.000000 0.000000
vn 1.000000 0.000000 0.000000
vn 0.000000 1.000000 0.000000
s 1
g pCube1
usemtl initialShadingGroup
f 33/48/1 34/45/2 35/46/3 36/47/4
s 2
f 16/25/5 17/26/6 31/43/7 32/44/8
s 3
f 15/24/9 16/25/10 32/44/11 25/36/12
s 4
f 13/22/13 14/23/14 27/38/15 28/40/16
s 5
f 10/16/17 11/18/18 6/12/19 4/4/20
s 6
f 12/19/21 9/15/22 3/3/23 5/14/24
s off
f 18/27/25 20/29/26 29/41/27 30/42/28
s 5
f 21/30/29 22/32/30 11/18/18 10/16/17
s 3
f 25/36/12 26/37/31 23/33/32 15/24/9
s 6
f 24/34/33 19/28/34 9/15/22 12/19/21
s 4
f 7/7/35 14/23/14 13/22/13 1/9/36
s 3
f 12/20/37 15/24/9 23/33/32 24/35/38
f 5/5/39 16/25/10 15/24/9 12/20/37
s 2
f 3/3/40 17/26/6 16/25/5 5/5/41
s 1
f 37/50/42 34/45/2 33/48/1 38/49/43
f 39/52/44 40/51/45 34/45/2 37/50/42
f 41/53/46 42/54/47 40/51/45 39/52/44
f 43/56/48 44/55/49 40/51/45 42/54/47
s 5
f 2/2/50 8/11/51 22/32/30 21/30/29
s 3
f 14/23/52 23/33/32 26/37/31 27/38/53
f 24/35/38 23/33/32 14/23/52 7/7/54
s 6
f 7/13/55 1/1/56 19/28/34 24/34/33
s 3
f 22/31/57 26/37/31 25/36/12 11/17/58
f 27/38/53 26/37/31 22/31/57 8/8/59
s 4
f 28/40/16 27/38/15 8/8/60 2/10/61
s 1
f 45/58/62 44/55/49 43/56/48 46/57/63
f 35/46/3 44/55/49 45/58/62 47/59/64
f 36/47/4 35/46/3 47/59/64 48/60/65
s 2
f 32/44/8 31/43/7 4/4/66 6/6/67
s 3
f 25/36/12 32/44/11 6/6/68 11/17/58
s off
f 18/27/69 30/42/70 35/46/71 34/45/72
s 2
f 31/43/7 17/26/6 33/48/73 36/47/74
f 17/26/6 3/3/40 38/49/75 33/48/73
s 6
f 3/3/23 9/15/22 37/50/76 38/49/77
s off
f 20/29/78 18/27/79 34/45/80 40/51/81
s 6
f 9/15/22 19/28/34 39/52/82 37/50/76
s 4
f 1/1/36 13/21/13 42/54/83 41/53/84
s 6
f 19/28/34 1/1/56 41/53/85 39/52/82
s off
f 29/41/86 20/29/87 40/51/88 44/55/89
s 4
f 13/21/13 28/39/16 43/56/90 42/54/83
f 28/39/16 2/2/61 46/57/91 43/56/90
s 5
f 2/2/50 21/30/29 45/58/92 46/57/93
s off
f 30/42/94 29/41/95 44/55/96 35/46/97
s 5
f 21/30/29 10/16/17 47/59/98 45/58/92
f 10/16/17 4/4/20 48/60/99 47/59/98
s 2
f 4/4/66 31/43/7 36/47/74 48/60/100
